<mxfile host="app.diagrams.net" modified="2022-10-30T14:42:54.305Z" agent="5.0 (Windows NT 10.0; Win64; x64) AppleWebKit/537.36 (KHTML, like Gecko) Chrome/106.0.0.0 Safari/537.36" etag="WbFazWC8UAcsTFSDLpnV" version="18.0.5" type="github">
  <diagram id="8MiBQFkhC163BQJhzvqc" name="Page-1">
    <mxGraphModel dx="1038" dy="571" grid="1" gridSize="10" guides="1" tooltips="1" connect="1" arrows="1" fold="1" page="1" pageScale="1" pageWidth="827" pageHeight="1169" math="0" shadow="0">
      <root>
        <mxCell id="0" />
        <mxCell id="1" parent="0" />
        <mxCell id="FW8Fi_QfFCGdqMMHrhlS-3" style="edgeStyle=orthogonalEdgeStyle;rounded=0;orthogonalLoop=1;jettySize=auto;html=1;entryX=0;entryY=0.5;entryDx=0;entryDy=0;strokeColor=#000000;strokeWidth=1;" edge="1" parent="1" source="FW8Fi_QfFCGdqMMHrhlS-1" target="FW8Fi_QfFCGdqMMHrhlS-2">
          <mxGeometry relative="1" as="geometry" />
        </mxCell>
        <mxCell id="FW8Fi_QfFCGdqMMHrhlS-1" value="" style="sketch=0;aspect=fixed;html=1;points=[];align=center;image;fontSize=12;image=img/lib/mscae/Azure_Pipelines.svg;" vertex="1" parent="1">
          <mxGeometry x="60" y="110" width="30" height="30" as="geometry" />
        </mxCell>
        <mxCell id="FW8Fi_QfFCGdqMMHrhlS-2" value="" style="editableCssRules=.*;shape=image;verticalLabelPosition=bottom;labelBackgroundColor=#ffffff;verticalAlign=top;aspect=fixed;imageAspect=0;image=data:image/svg+xml,PHN2ZyB4bWxucz0iaHR0cDovL3d3dy53My5vcmcvMjAwMC9zdmciIHhtbG5zOnY9Imh0dHBzOi8vdmVjdGEuaW8vbmFubyIgd2lkdGg9IjE4LjMxOTk5OTY5NDgyNDIyIiBoZWlnaHQ9IjIwLjAwMDAwMTkwNzM0ODYzMyIgdmlld0JveD0iMCAwIDE4LjMxOTk5OTY5NDgyNDIyIDIwLjAwMDAwMTkwNzM0ODYzMyI+JiN4YTsJPHN0eWxlIHR5cGU9InRleHQvY3NzIj4mI3hhOwkuc3Qwe2ZpbGw6IzY2OWRmNjt9JiN4YTsJLnN0MXtmaWxsOiM0Mjg1ZjQ7fSYjeGE7CS5zdDJ7ZmlsbDojYWVjYmZhO30mI3hhOwk8L3N0eWxlPiYjeGE7CTxkZWZzPiYjeGE7CQk8ZmlsdGVyIGlkPSJBIiB4PSI0LjY0IiB5PSI0LjE5IiB3aWR0aD0iMTQuNzMiIGhlaWdodD0iMTIuNzYiIGZpbHRlclVuaXRzPSJ1c2VyU3BhY2VPblVzZSIgY29sb3ItaW50ZXJwb2xhdGlvbi1maWx0ZXJzPSJzUkdCIj4mI3hhOwkJCTxmZUZsb29kIGZsb29kLWNvbG9yPSIjZmZmIi8+JiN4YTsJCQk8ZmVCbGVuZCBpbj0iU291cmNlR3JhcGhpYyIvPiYjeGE7CQk8L2ZpbHRlcj4mI3hhOwkJPG1hc2sgaWQ9IkIiIHg9IjQuNjQiIHk9IjQuMTkiIHdpZHRoPSIxNC43MyIgaGVpZ2h0PSIxMi43NiIgbWFza1VuaXRzPSJ1c2VyU3BhY2VPblVzZSI+JiN4YTsJCQk8Y2lyY2xlIGN4PSIxMiIgY3k9IjEyLjIzIiByPSIzLjU4IiBmaWx0ZXI9InVybCgjQSkiLz4mI3hhOwkJPC9tYXNrPiYjeGE7CTwvZGVmcz4mI3hhOwk8ZyBjbGFzcz0ic3QwIj4mI3hhOwkJPGNpcmNsZSBjeD0iMTYuMTMiIGN5PSI2LjIxIiByPSIxLjcyIi8+JiN4YTsJCTxjaXJjbGUgY3g9IjIuMTkiIGN5PSI2LjIxIiByPSIxLjcyIi8+JiN4YTsJCTxjaXJjbGUgY3g9IjkuMTYiIGN5PSIxOC4yOCIgcj0iMS43MiIvPiYjeGE7CTwvZz4mI3hhOwk8ZyBtYXNrPSJ1cmwoI0IpIiB0cmFuc2Zvcm09InRyYW5zbGF0ZSgtMi44NCAtMikiPiYjeGE7CQk8cGF0aCB0cmFuc2Zvcm09Im1hdHJpeCguNSAtLjg3IC44NyAuNSAtNC41OSAyMC41MykiIGQ9Ik0xNC42OSAxMC4yMmgxLjU5djguMDRoLTEuNTl6IiBjbGFzcz0ic3QxIi8+JiN4YTsJCTxwYXRoIHRyYW5zZm9ybT0icm90YXRlKDMzMCA4LjUyMyAxNC4yNDQpIiBkPSJNNC40OSAxMy40NWg4LjA0djEuNTlINC40OXoiIGNsYXNzPSJzdDEiLz4mI3hhOwkJPHBhdGggZD0iTTExLjIgNC4xOWgxLjU5djguMDRIMTEuMnoiIGNsYXNzPSJzdDEiLz4mI3hhOwk8L2c+JiN4YTsJPGcgY2xhc3M9InN0MiI+JiN4YTsJCTxjaXJjbGUgY3g9IjkuMTYiIGN5PSIxMC4yMyIgcj0iMi43OCIvPiYjeGE7CQk8Y2lyY2xlIGN4PSIyLjE5IiBjeT0iMTQuMjUiIHI9IjIuMTkiLz4mI3hhOwkJPGNpcmNsZSBjeD0iMTYuMTMiIGN5PSIxNC4yNSIgcj0iMi4xOSIvPiYjeGE7CQk8Y2lyY2xlIGN4PSI5LjE2IiBjeT0iMi4xOSIgcj0iMi4xOSIvPiYjeGE7CTwvZz4mI3hhOzwvc3ZnPg==;" vertex="1" parent="1">
          <mxGeometry x="170" y="110" width="27" height="30" as="geometry" />
        </mxCell>
        <mxCell id="FW8Fi_QfFCGdqMMHrhlS-4" value="" style="whiteSpace=wrap;html=1;rounded=0;dashed=1;fillColor=#F2F4FC;strokeColor=#6c8ebf;" vertex="1" parent="1">
          <mxGeometry x="240" y="70" width="420" height="410" as="geometry" />
        </mxCell>
        <mxCell id="FW8Fi_QfFCGdqMMHrhlS-10" value="" style="whiteSpace=wrap;html=1;rounded=0;dashed=1;fontSize=11;fillColor=#d5e8d4;strokeColor=#82b366;" vertex="1" parent="1">
          <mxGeometry x="400" y="80" width="210" height="160" as="geometry" />
        </mxCell>
        <mxCell id="FW8Fi_QfFCGdqMMHrhlS-11" style="edgeStyle=orthogonalEdgeStyle;rounded=0;orthogonalLoop=1;jettySize=auto;html=1;exitX=0.5;exitY=1;exitDx=0;exitDy=0;entryX=0.5;entryY=0;entryDx=0;entryDy=0;fontSize=11;strokeColor=#000000;strokeWidth=1;" edge="1" parent="1" source="FW8Fi_QfFCGdqMMHrhlS-5" target="FW8Fi_QfFCGdqMMHrhlS-6">
          <mxGeometry relative="1" as="geometry" />
        </mxCell>
        <mxCell id="FW8Fi_QfFCGdqMMHrhlS-17" style="edgeStyle=orthogonalEdgeStyle;rounded=0;orthogonalLoop=1;jettySize=auto;html=1;entryX=0;entryY=0.5;entryDx=0;entryDy=0;fontSize=11;strokeColor=#000000;strokeWidth=1;" edge="1" parent="1" source="FW8Fi_QfFCGdqMMHrhlS-5" target="FW8Fi_QfFCGdqMMHrhlS-15">
          <mxGeometry relative="1" as="geometry" />
        </mxCell>
        <mxCell id="FW8Fi_QfFCGdqMMHrhlS-5" value="&lt;font style=&quot;font-size: 11px;&quot;&gt;check install pipeline&lt;/font&gt;" style="whiteSpace=wrap;html=1;rounded=0;dashed=1;fillColor=#F2F4FC;" vertex="1" parent="1">
          <mxGeometry x="480" y="90" width="120" height="20" as="geometry" />
        </mxCell>
        <mxCell id="FW8Fi_QfFCGdqMMHrhlS-12" style="edgeStyle=orthogonalEdgeStyle;rounded=0;orthogonalLoop=1;jettySize=auto;html=1;exitX=0.5;exitY=1;exitDx=0;exitDy=0;entryX=0.632;entryY=0.364;entryDx=0;entryDy=0;entryPerimeter=0;fontSize=11;strokeColor=#000000;strokeWidth=1;" edge="1" parent="1" source="FW8Fi_QfFCGdqMMHrhlS-6" target="FW8Fi_QfFCGdqMMHrhlS-10">
          <mxGeometry relative="1" as="geometry" />
        </mxCell>
        <mxCell id="FW8Fi_QfFCGdqMMHrhlS-18" style="edgeStyle=orthogonalEdgeStyle;rounded=0;orthogonalLoop=1;jettySize=auto;html=1;entryX=0;entryY=0.5;entryDx=0;entryDy=0;fontSize=11;strokeColor=#000000;strokeWidth=1;" edge="1" parent="1" source="FW8Fi_QfFCGdqMMHrhlS-6" target="FW8Fi_QfFCGdqMMHrhlS-15">
          <mxGeometry relative="1" as="geometry" />
        </mxCell>
        <mxCell id="FW8Fi_QfFCGdqMMHrhlS-6" value="check composer" style="whiteSpace=wrap;html=1;rounded=0;dashed=1;fillColor=#F2F4FC;" vertex="1" parent="1">
          <mxGeometry x="480" y="125" width="120" height="20" as="geometry" />
        </mxCell>
        <mxCell id="FW8Fi_QfFCGdqMMHrhlS-14" style="edgeStyle=orthogonalEdgeStyle;rounded=0;orthogonalLoop=1;jettySize=auto;html=1;exitX=0.5;exitY=1;exitDx=0;exitDy=0;entryX=0.5;entryY=0;entryDx=0;entryDy=0;fontSize=11;strokeColor=#000000;strokeWidth=1;" edge="1" parent="1" source="FW8Fi_QfFCGdqMMHrhlS-7" target="FW8Fi_QfFCGdqMMHrhlS-8">
          <mxGeometry relative="1" as="geometry" />
        </mxCell>
        <mxCell id="FW8Fi_QfFCGdqMMHrhlS-19" style="edgeStyle=orthogonalEdgeStyle;rounded=0;orthogonalLoop=1;jettySize=auto;html=1;entryX=0;entryY=0.5;entryDx=0;entryDy=0;fontSize=11;strokeColor=#000000;strokeWidth=1;" edge="1" parent="1" source="FW8Fi_QfFCGdqMMHrhlS-7" target="FW8Fi_QfFCGdqMMHrhlS-15">
          <mxGeometry relative="1" as="geometry" />
        </mxCell>
        <mxCell id="FW8Fi_QfFCGdqMMHrhlS-7" value="check dags" style="whiteSpace=wrap;html=1;rounded=0;dashed=1;fillColor=#F2F4FC;" vertex="1" parent="1">
          <mxGeometry x="480" y="160" width="120" height="20" as="geometry" />
        </mxCell>
        <mxCell id="FW8Fi_QfFCGdqMMHrhlS-20" style="edgeStyle=orthogonalEdgeStyle;rounded=0;orthogonalLoop=1;jettySize=auto;html=1;entryX=0;entryY=0.5;entryDx=0;entryDy=0;fontSize=11;strokeColor=#000000;strokeWidth=1;" edge="1" parent="1" source="FW8Fi_QfFCGdqMMHrhlS-8" target="FW8Fi_QfFCGdqMMHrhlS-15">
          <mxGeometry relative="1" as="geometry" />
        </mxCell>
        <mxCell id="FW8Fi_QfFCGdqMMHrhlS-8" value="check dashbord refresh" style="whiteSpace=wrap;html=1;rounded=0;dashed=1;fillColor=#F2F4FC;" vertex="1" parent="1">
          <mxGeometry x="480" y="200" width="120" height="30" as="geometry" />
        </mxCell>
        <mxCell id="FW8Fi_QfFCGdqMMHrhlS-15" value="" style="strokeColor=#dddddd;shadow=1;strokeWidth=1;rounded=1;absoluteArcSize=1;arcSize=2;dashed=1;fontSize=11;fillColor=#F2F4FC;" vertex="1" parent="1">
          <mxGeometry x="690" y="145" width="130" height="60" as="geometry" />
        </mxCell>
        <mxCell id="FW8Fi_QfFCGdqMMHrhlS-16" value="&lt;font color=&quot;#000000&quot;&gt;Table&lt;br&gt;&lt;/font&gt;BigQuery" style="editableCssRules=.*;html=1;fontColor=#999999;shape=image;verticalLabelPosition=middle;labelBackgroundColor=#ffffff;verticalAlign=middle;labelPosition=right;align=left;spacingLeft=20;part=1;points=[];imageAspect=0;image=data:image/svg+xml,PHN2ZyB4bWxucz0iaHR0cDovL3d3dy53My5vcmcvMjAwMC9zdmciIHhtbG5zOnY9Imh0dHBzOi8vdmVjdGEuaW8vbmFubyIgd2lkdGg9IjIwLjAwMTA0NTIyNzA1MDc4IiBoZWlnaHQ9IjIwLjAwMTA0NTIyNzA1MDc4IiBmaWxsLXJ1bGU9ImV2ZW5vZGQiIHZpZXdCb3g9IjAgMCAyMC4wMDEwNDUyMjcwNTA3OCAyMC4wMDEwNDUyMjcwNTA3OCI+JiN4YTsJPHN0eWxlIHR5cGU9InRleHQvY3NzIj4mI3hhOwkuc3Qwe2ZpbGw6I2FlY2JmYTt9JiN4YTsJLnN0MXtmaWxsOiM2NjlkZjY7fSYjeGE7CS5zdDJ7ZmlsbDojNDI4NWY0O30mI3hhOwk8L3N0eWxlPiYjeGE7CTxwYXRoIGNsYXNzPSJzdDAiIGQ9Ik00LjczIDguODN2Mi42M2E0LjkxIDQuOTEgMCAwIDAgMS43MSAxLjc0VjguODN6Ii8+JiN4YTsJPHBhdGggY2xhc3M9InN0MSIgZD0iTTcuODkgNi40MXY3LjUzQTcuNjIgNy42MiAwIDAgMCA5IDE0YTggOCAwIDAgMCAxIDBWNi40MXoiLz4mI3hhOwk8cGF0aCBjbGFzcz0ic3QwIiBkPSJNMTEuNjQgOS44NnYzLjI5YTUgNSAwIDAgMCAxLjctMS44MlY5Ljg2eiIvPiYjeGE7CTxwYXRoIGNsYXNzPSJzdDIiIGQ9Ik0xNS43NCAxNC4zMmwtMS40MiAxLjQyYS40Mi40MiAwIDAgMCAwIC42bDMuNTQgMy41NGEuNDIuNDIgMCAwIDAgLjU5IDBsMS40My0xLjQzYS40Mi40MiAwIDAgMCAwLS41OWwtMy41NC0zLjU0YS40Mi40MiAwIDAgMC0uNiAwIi8+JiN4YTsJPHBhdGggY2xhc3M9InN0MSIgZD0iTTkgMGE5IDkgMCAxIDAgMCAxOEE5IDkgMCAxIDAgOSAwbTAgMTUuNjlhNi42OCA2LjY4IDAgMCAxIC4wMDctMTMuMzYgNi42OCA2LjY4IDAgMCAxIDQuNzI3IDExLjQwM0E2LjY4IDYuNjggMCAwIDEgOSAxNS42OSIvPiYjeGE7PC9zdmc+;rounded=0;dashed=1;fontSize=11;fillColor=#F2F4FC;" vertex="1" parent="FW8Fi_QfFCGdqMMHrhlS-15">
          <mxGeometry width="30" height="30" relative="1" as="geometry">
            <mxPoint x="15" y="15" as="offset" />
          </mxGeometry>
        </mxCell>
        <mxCell id="FW8Fi_QfFCGdqMMHrhlS-21" value="" style="whiteSpace=wrap;html=1;rounded=0;dashed=1;fontSize=11;fillColor=#E5CCFF;strokeColor=#82b366;" vertex="1" parent="1">
          <mxGeometry x="400" y="250" width="210" height="100" as="geometry" />
        </mxCell>
        <mxCell id="FW8Fi_QfFCGdqMMHrhlS-25" style="edgeStyle=orthogonalEdgeStyle;rounded=0;orthogonalLoop=1;jettySize=auto;html=1;entryX=0.5;entryY=1;entryDx=0;entryDy=0;fontSize=11;strokeColor=#000000;strokeWidth=1;" edge="1" parent="1" source="FW8Fi_QfFCGdqMMHrhlS-22" target="FW8Fi_QfFCGdqMMHrhlS-15">
          <mxGeometry relative="1" as="geometry" />
        </mxCell>
        <mxCell id="FW8Fi_QfFCGdqMMHrhlS-22" value="&lt;span style=&quot;font-size: 11px;&quot;&gt;ADO - work item&lt;/span&gt;" style="whiteSpace=wrap;html=1;rounded=0;dashed=1;fillColor=#F2F4FC;" vertex="1" parent="1">
          <mxGeometry x="480" y="260" width="120" height="20" as="geometry" />
        </mxCell>
        <mxCell id="FW8Fi_QfFCGdqMMHrhlS-26" style="edgeStyle=orthogonalEdgeStyle;rounded=0;orthogonalLoop=1;jettySize=auto;html=1;entryX=0.5;entryY=1;entryDx=0;entryDy=0;fontSize=11;strokeColor=#000000;strokeWidth=1;" edge="1" parent="1" source="FW8Fi_QfFCGdqMMHrhlS-23" target="FW8Fi_QfFCGdqMMHrhlS-15">
          <mxGeometry relative="1" as="geometry" />
        </mxCell>
        <mxCell id="FW8Fi_QfFCGdqMMHrhlS-23" value="&lt;span style=&quot;font-size: 11px;&quot;&gt;ADO - iteration&lt;/span&gt;" style="whiteSpace=wrap;html=1;rounded=0;dashed=1;fillColor=#F2F4FC;" vertex="1" parent="1">
          <mxGeometry x="480" y="290" width="120" height="20" as="geometry" />
        </mxCell>
        <mxCell id="FW8Fi_QfFCGdqMMHrhlS-27" style="edgeStyle=orthogonalEdgeStyle;rounded=0;orthogonalLoop=1;jettySize=auto;html=1;entryX=0.5;entryY=1;entryDx=0;entryDy=0;fontSize=11;strokeColor=#000000;strokeWidth=1;" edge="1" parent="1" source="FW8Fi_QfFCGdqMMHrhlS-24" target="FW8Fi_QfFCGdqMMHrhlS-15">
          <mxGeometry relative="1" as="geometry" />
        </mxCell>
        <mxCell id="FW8Fi_QfFCGdqMMHrhlS-24" value="&lt;span style=&quot;font-size: 11px;&quot;&gt;ADO - project&lt;/span&gt;" style="whiteSpace=wrap;html=1;rounded=0;dashed=1;fillColor=#F2F4FC;" vertex="1" parent="1">
          <mxGeometry x="480" y="320" width="120" height="20" as="geometry" />
        </mxCell>
        <mxCell id="FW8Fi_QfFCGdqMMHrhlS-29" value="&lt;b&gt;Runtime&lt;/b&gt;" style="text;html=1;resizable=0;autosize=1;align=center;verticalAlign=middle;points=[];fillColor=none;strokeColor=none;rounded=0;dashed=1;fontSize=11;" vertex="1" parent="1">
          <mxGeometry x="404" y="145" width="60" height="20" as="geometry" />
        </mxCell>
        <mxCell id="FW8Fi_QfFCGdqMMHrhlS-30" value="&lt;b&gt;Data&lt;/b&gt;" style="text;html=1;resizable=0;autosize=1;align=center;verticalAlign=middle;points=[];fillColor=none;strokeColor=none;rounded=0;dashed=1;fontSize=11;" vertex="1" parent="1">
          <mxGeometry x="414" y="290" width="40" height="20" as="geometry" />
        </mxCell>
        <mxCell id="FW8Fi_QfFCGdqMMHrhlS-31" value="" style="whiteSpace=wrap;html=1;rounded=0;dashed=1;fontSize=11;fillColor=#fad9d5;strokeColor=#ae4132;" vertex="1" parent="1">
          <mxGeometry x="400" y="360" width="210" height="100" as="geometry" />
        </mxCell>
        <mxCell id="FW8Fi_QfFCGdqMMHrhlS-32" value="&lt;b&gt;Billing&lt;/b&gt;" style="text;html=1;resizable=0;autosize=1;align=center;verticalAlign=middle;points=[];fillColor=none;strokeColor=none;rounded=0;dashed=1;fontSize=11;" vertex="1" parent="1">
          <mxGeometry x="409" y="400" width="50" height="20" as="geometry" />
        </mxCell>
        <mxCell id="FW8Fi_QfFCGdqMMHrhlS-33" value="&lt;span style=&quot;font-size: 11px;&quot;&gt;BigQuery Cost&lt;/span&gt;" style="whiteSpace=wrap;html=1;rounded=0;dashed=1;fillColor=#F2F4FC;" vertex="1" parent="1">
          <mxGeometry x="480" y="370" width="120" height="20" as="geometry" />
        </mxCell>
        <mxCell id="FW8Fi_QfFCGdqMMHrhlS-34" value="&lt;span style=&quot;font-size: 11px;&quot;&gt;Infrasture Cost&lt;/span&gt;" style="whiteSpace=wrap;html=1;rounded=0;dashed=1;fillColor=#F2F4FC;" vertex="1" parent="1">
          <mxGeometry x="480" y="400" width="120" height="20" as="geometry" />
        </mxCell>
        <mxCell id="FW8Fi_QfFCGdqMMHrhlS-35" value="&lt;span style=&quot;font-size: 11px;&quot;&gt;TopN Cost&lt;/span&gt;" style="whiteSpace=wrap;html=1;rounded=0;dashed=1;fillColor=#F2F4FC;" vertex="1" parent="1">
          <mxGeometry x="480" y="430" width="120" height="20" as="geometry" />
        </mxCell>
      </root>
    </mxGraphModel>
  </diagram>
</mxfile>
